<svg xmlns="http://www.w3.org/2000/svg" xmlns:xlink="http://www.w3.org/1999/xlink" version="1.1" id="Layer_1" x="0px" y="0px" viewBox="0 0 100 100" enable-background="new 0 0 100 100" xml:space="preserve">
<path d="M94.415,64c-1-27.5-6.084-34.5-6.084-34.5c-1.5-5.333-10.832-12-19.5-6.667c-8.666,5.333-18.164,4.541-18.164,4.541  l-2.332-0.042c0,0-8.5,0.834-17.167-4.5s-18,1.333-19.5,6.667c0,0-5.083,7-6.083,34.5s6.25,23,17.75,11.75s26-9.75,26-9.75h1.33  c0,0,14.5-1.5,26,9.75S95.415,91.5,94.415,64z M23.21,42.25c-3.521,0-6.375-2.854-6.375-6.375S19.689,29.5,23.21,29.5  s6.375,2.854,6.375,6.375S26.731,42.25,23.21,42.25z M40.919,55.561h-2.547v2.459c0,1.609-1.212,1.838-2.708,1.838  c-1.496,0-2.708-0.229-2.708-1.838v-2.459h-2.548c-1.637,0-1.869-1.213-1.869-2.709s0.232-2.708,1.869-2.708h2.548v-2.459  c0-1.607,1.212-1.837,2.708-1.837c1.496,0,2.708,0.23,2.708,1.837v2.459h2.547c1.637,0,1.869,1.211,1.869,2.708  S42.556,55.561,40.919,55.561z M49.335,42.323c-2.646,0-4.792-2.145-4.792-4.792c0-2.646,2.145-4.792,4.792-4.792  s4.792,2.145,4.792,4.792C54.127,40.178,51.981,42.323,49.335,42.323z M62.97,59.527c-3.521,0-6.375-2.854-6.375-6.375  c0-3.521,2.854-6.375,6.375-6.375s6.375,2.854,6.375,6.375C69.345,56.674,66.491,59.527,62.97,59.527z M69.345,38.812  c-1.415,0-2.562-1.147-2.562-2.562c0-1.416,1.147-2.562,2.562-2.562s2.562,1.147,2.562,2.562  C71.907,37.665,70.76,38.812,69.345,38.812z M76.755,46.312c-1.415,0-2.562-1.147-2.562-2.562c0-1.416,1.147-2.562,2.562-2.562  s2.562,1.147,2.562,2.562C79.317,45.165,78.17,46.312,76.755,46.312z M76.755,31.812c-1.415,0-2.562-1.147-2.562-2.562  c0-1.416,1.147-2.562,2.562-2.562s2.562,1.147,2.562,2.562C79.317,30.665,78.17,31.812,76.755,31.812z M83.835,38.812  c-1.415,0-2.562-1.147-2.562-2.562c0-1.416,1.147-2.562,2.562-2.562s2.562,1.147,2.562,2.562  C86.397,37.665,85.25,38.812,83.835,38.812z"/>
</svg>